<svg width="1004" height="585" viewBox="0 0 1004 585" fill="none" xmlns="http://www.w3.org/2000/svg">
<path d="M454.328 137.352C454.328 137.352 378.985 156.418 378.446 219.05C377.906 281.682 411.879 390.804 363.396 399.733C314.914 408.662 285.926 273.706 285.926 273.706L251.382 287.624C251.382 287.624 288.149 518.229 415.212 480.16C542.276 442.091 454.328 137.352 454.328 137.352Z" fill="#7D30FA"/>
<path opacity="0.44" d="M454.328 137.352C454.328 137.352 378.985 156.418 378.446 219.05C377.906 281.682 411.879 390.804 363.396 399.733C314.914 408.662 285.926 273.706 285.926 273.706L251.382 287.624C251.382 287.624 288.149 518.229 415.212 480.16C542.276 442.091 454.328 137.352 454.328 137.352Z" fill="white"/>
<path opacity="0.3" d="M502.239 584.483C225.256 584.483 0.716125 563.925 0.716125 538.566C0.716125 513.206 225.256 492.648 502.239 492.648C779.223 492.648 1003.76 513.206 1003.76 538.566C1003.76 563.925 779.223 584.483 502.239 584.483Z" fill="#B68BFC" fill-opacity="0.54"/>
<path opacity="0.58" d="M901.559 484.514C901.559 484.514 934.135 475.616 941.278 445.301C941.278 445.301 890.828 435.101 889.399 487.215L901.559 484.514Z" fill="#56A531"/>
<path opacity="0.73" d="M897.59 481.304C897.59 481.304 920.323 445.301 900.289 411.649C900.289 411.649 861.967 436.022 878.985 481.368L897.59 481.304Z" fill="#56A531"/>
<path d="M891.717 481.304C891.717 481.304 879.684 443.172 843.362 436.117C843.362 436.117 836.567 460.776 866.888 481.431L891.717 481.304Z" fill="#56A531"/>
<path d="M915.339 480.478L908.735 525.664L867.174 525.823L861.046 480.7L915.339 480.478Z" fill="#24285B"/>
<path d="M522.147 34.8083L545.102 115.807L499.572 125.309L501.16 62.5494L522.147 34.8083Z" fill="#F4A28C"/>
<path opacity="0.31" d="M500.207 76.2452C505.778 74.1252 510.603 70.4122 514.082 65.5682C514.082 65.5682 515.257 80.9482 500.271 98.0441L500.207 76.2452Z" fill="#CE8172"/>
<path d="M545.102 115.839L518.114 121.432C518.114 121.432 394.607 134.746 389.59 204.528C384.574 274.31 454.329 452.578 454.329 452.578H641.463C641.463 452.578 791.418 97.3768 545.102 115.839Z" fill="#7D30FA"/>
<path opacity="0.09" d="M561.263 180.473C561.263 180.473 546.182 224.071 585.742 252.511C625.303 280.951 605.999 388.039 562.692 405.326C519.385 422.612 589.774 459.601 619.842 444.443C649.909 429.285 654.036 419.022 654.036 419.022C654.036 419.022 681.881 338.467 684.834 287.084C687.787 235.701 561.263 180.473 561.263 180.473Z" fill="black"/>
<path d="M641.463 452.578C641.463 452.578 746.81 415.081 785.259 431.097C823.708 447.112 801.959 521.724 676.579 525.41C551.198 529.096 365.651 549.592 328.853 504.215C292.054 458.838 430.834 434.529 641.463 452.578Z" fill="#24285B"/>
<path d="M561.263 180.473C561.263 142.119 600.093 115.903 636.542 127.883C668.292 138.274 706.868 157.562 730.331 192.834C775.48 260.582 878.604 458.647 616.825 466.274L609.142 437.103C609.142 437.103 766.272 393.6 696.803 301.575C642.828 230.013 561.104 234.811 561.263 180.473Z" fill="#7D30FA"/>
<path opacity="0.44" d="M561.263 180.473C561.263 142.119 600.093 115.903 636.542 127.883C668.292 138.274 706.868 157.562 730.331 192.834C775.48 260.582 878.604 458.647 616.825 466.274L609.142 437.103C609.142 437.103 766.272 393.6 696.803 301.575C642.828 230.013 561.104 234.811 561.263 180.473Z" fill="white"/>
<path d="M615.81 472.248H485.603L454.329 331.699H635.875L615.81 472.248Z" fill="#FF9900"/>
<path d="M277.704 276.947C277.704 276.947 275.735 243.582 262.368 234.081C249.002 224.579 251.224 248.603 251.224 248.603C251.224 248.603 237.857 232.968 226.713 240.245C215.569 247.522 251.224 287.624 251.224 287.624L277.704 276.947Z" fill="#F4A28C"/>
<path d="M154.884 132.613L269.544 100.745L310.399 247.987L195.739 279.855L154.884 132.613Z" fill="#F1D9C8"/>
<path d="M194.813 200.985L270.621 179.915L286.125 235.793L210.317 256.863L194.813 200.985Z" fill="#F1D9C8"/>
<path opacity="0.24" d="M180.252 147.742L201.789 141.756L212.221 179.355L190.684 185.341L180.252 147.742Z" fill="#F1D9C8"/>
<path d="M474.998 37.3186C474.998 37.3186 477.284 62.9307 484.523 78.9462C485.231 80.4908 486.237 81.8805 487.482 83.0359C488.727 84.1913 490.187 85.0898 491.78 85.6801C493.372 86.2703 495.065 86.5406 496.762 86.4757C498.458 86.4108 500.126 86.0118 501.668 85.3016C509.669 81.5519 519.416 74.1479 519.829 60.2933L523.48 36.842C523.711 32.0704 522.457 27.3447 519.893 23.3155C517.329 19.2864 513.579 16.152 509.161 14.344C493.064 6.49512 472.839 21.6527 474.998 37.3186Z" fill="#F4A28C"/>
<path d="M481.443 37.0962C489.314 36.0366 497.031 34.0417 504.43 31.154C502.787 34.9977 502.303 39.2381 503.036 43.3537C503.77 47.4692 505.689 51.2806 508.557 54.3193C511.275 57.3193 514.952 59.2777 518.956 59.8577C522.96 60.4376 527.041 59.6029 530.497 57.4969L524.147 25.0528C523.424 20.384 521.452 15.9981 518.438 12.3613C515.425 8.72454 511.484 5.9726 507.033 4.39792C503.185 3.0182 499.25 1.89301 495.254 1.02958C485.221 -1.06768 472.648 7.60738 463.155 2.77731C462.192 2.33783 461.135 2.14601 460.08 2.21927C459.024 2.29254 458.004 2.62859 457.111 3.19686C456.219 3.76513 455.482 4.54762 454.968 5.47325C454.455 6.39888 454.18 7.43832 454.17 8.49713C454.487 18.6339 458.996 33.9186 473.22 36.9373C475.931 37.4634 478.713 37.5172 481.443 37.0962V37.0962Z" fill="#4A2626"/>
<path d="M505.7 54.065C505.7 54.065 504.176 44.2778 511.605 43.7376C519.035 43.1974 521.384 57.2745 511.605 60.3568L505.7 54.065Z" fill="#F4A28C"/>
<path d="M477.284 53.2071L471.95 64.2336C471.649 64.858 471.512 65.5485 471.55 66.2405C471.589 66.9325 471.802 67.6035 472.17 68.1907C472.538 68.778 473.048 69.2622 473.654 69.5983C474.26 69.9343 474.941 70.1112 475.633 70.1123H485.603L477.284 53.2071Z" fill="#F4A28C"/>
<path d="M548.308 405.326C541.154 405.326 535.354 399.521 535.354 392.361C535.354 385.2 541.154 379.396 548.308 379.396C555.463 379.396 561.262 385.2 561.262 392.361C561.262 399.521 555.463 405.326 548.308 405.326Z" fill="white"/>
<path d="M635.875 501.514C635.875 501.514 688.993 524.552 674.991 538.566C660.99 552.579 625.112 527.539 625.112 527.539L635.875 501.514Z" fill="#4A2626"/>
<path d="M469.664 507.361C469.664 507.361 416.546 530.367 430.58 544.381C444.613 558.395 480.459 533.354 480.459 533.354L469.664 507.361Z" fill="#4A2626"/>
<path d="M239.254 169.415C228.172 169.415 219.188 160.423 219.188 149.332C219.188 138.24 228.172 129.249 239.254 129.249C250.336 129.249 259.32 138.24 259.32 149.332C259.32 160.423 250.336 169.415 239.254 169.415Z" fill="#F1D9C8"/>
<path d="M234.238 215.428C230.696 215.428 227.824 212.554 227.824 209.009C227.824 205.464 230.696 202.59 234.238 202.59C237.78 202.59 240.651 205.464 240.651 209.009C240.651 212.554 237.78 215.428 234.238 215.428Z" fill="#F1D9C8"/>
<path d="M277.862 228.806L251.383 202.59L244.112 231.094L224.713 220.448L215.156 246.632L277.862 228.806Z" fill="#F1D9C8"/>
<path d="M143.973 401.957H269.861V527.984H143.973V401.957Z" fill="#4F392A"/>
<path d="M72.0269 401.957H197.916V527.984H72.0269V401.957Z" fill="#BF8C69"/>
</svg>
