<svg width="500" height="500" viewBox="0 0 500 500" fill="none" xmlns="http://www.w3.org/2000/svg">
<path d="M124.938 220.048C122.947 218.902 120.987 217.726 119.087 216.429C118.134 215.652 117.126 214.947 116.07 214.318C116.07 214.318 118.332 216.157 117.096 215.102L115.527 213.775C113.838 212.327 112.24 210.758 110.701 209.25C109.857 208.406 105.996 205.208 106.026 203.972C106.026 203.972 108.198 206.988 106.539 204.635L105.664 203.429C105.091 202.614 104.548 201.8 104.005 200.955C102.738 199.025 101.562 197.004 100.476 194.923L98.9377 191.906L98.3344 190.549C97.5803 189.071 98.9678 191.906 98.9075 191.906C97.9024 189.817 97.1335 187.621 96.6151 185.361C95.9817 183.34 95.4689 181.259 95.0165 179.148C94.8053 178.031 94.6244 176.885 94.4133 175.769C93.9307 173.205 94.6546 178.786 94.4133 175.347C94.0512 170.89 94.0512 166.411 94.4133 161.955C94.4133 161.472 94.8958 157.46 94.564 159.994C94.2322 162.528 94.8355 158.516 94.926 158.003C95.3784 155.681 95.9515 153.388 96.6151 151.096C97.2787 148.804 98.0328 146.903 98.7567 144.792C99.3298 143.223 98.2741 145.938 98.2439 145.998C98.4857 145.53 98.6973 145.046 98.8773 144.551C99.4806 143.284 100.084 142.017 100.747 140.78C101.652 139.061 102.618 137.372 103.764 135.743C104.307 134.838 104.88 133.963 105.483 133.119L106.388 131.852C107.745 129.952 107.383 131.249 106.207 131.852C107.829 130.325 109.304 128.649 110.611 126.845C112.24 125.156 113.929 123.527 115.738 121.989C116.191 121.597 118.423 119.365 116.915 120.933C115.407 122.502 117.94 120.209 118.604 119.727C120.494 118.399 122.455 117.163 124.486 116.016C126.356 114.961 128.286 114.026 130.217 113C130.651 112.76 131.105 112.558 131.574 112.397C131.574 112.397 128.558 113.513 130.247 112.97C131.936 112.427 132.72 112.035 133.957 111.613C135.978 110.949 138.029 110.346 139.989 109.833C140.955 109.592 141.96 109.381 143.006 109.2C143.549 109.2 146.565 108.928 146.897 108.506C146.897 108.506 143.699 108.808 145.358 108.747C145.841 108.747 146.324 108.747 146.806 108.566L150.275 108.325C152.587 108.325 154.91 108.325 157.243 108.325L160.711 108.566C161.224 108.566 161.707 108.717 162.219 108.747C163.909 108.747 160.681 108.506 160.681 108.506C162.913 109.17 165.356 109.32 167.619 109.893C169.881 110.466 171.902 111.07 173.983 111.794C175.07 112.329 176.213 112.744 177.391 113.03C177.391 113.03 174.647 111.824 176.185 112.548L178.085 113.422C190.814 119.455 202.939 127.056 215.276 133.903L283.595 171.848L331.856 198.723C342.739 205.199 355.208 208.52 367.87 208.315C378.92 207.999 389.704 204.859 399.197 199.196C408.689 193.532 416.574 185.533 422.101 175.96C427.627 166.387 430.612 155.559 430.769 144.506C430.927 133.454 428.253 122.545 423.002 112.818C417.751 103.091 410.098 94.87 400.771 88.9378C391.444 83.0057 380.753 79.5596 369.718 78.9278C358.682 78.296 347.668 80.4995 337.725 85.3285C327.782 90.1574 319.24 97.4511 312.914 106.515C310.701 109.78 308.686 113.174 306.881 116.68L284.5 156.767L248.606 221.345L209.786 291.263L178.176 348.15C173.651 356.294 169.127 364.499 164.602 372.613C164.24 373.246 163.878 373.879 163.486 374.483C162.853 375.538 162.129 376.504 161.465 377.499C160.802 378.494 162.159 376.564 162.25 376.504C161.745 376.981 161.299 377.518 160.923 378.102C159.471 379.764 157.909 381.326 156.247 382.778L155.101 383.773C152.899 385.643 155.765 383.29 155.765 383.26C155.765 383.23 153.261 384.949 152.748 385.191C150.964 386.401 149.052 387.412 147.048 388.207C147.048 388.207 150.637 386.849 147.892 387.815L146.505 388.328C145.419 388.72 144.303 389.082 143.187 389.383C142.071 389.685 140.955 389.956 139.808 390.167C139.235 390.167 135.948 390.831 138.391 390.469C140.834 390.107 137.064 390.469 136.43 390.469C135.103 390.469 133.776 390.469 132.449 390.469L129.432 390.288C126.416 390.288 132.268 390.861 129.432 390.288C126.919 389.808 124.441 389.163 122.012 388.358C121.469 388.177 118.453 386.88 120.414 387.815C122.374 388.75 118.815 387 118.423 386.789C116.523 385.794 114.773 384.617 112.994 383.471C110.641 381.933 114.864 385.13 112.752 383.29C111.847 382.506 110.942 381.722 110.098 380.907C109.253 380.093 108.65 379.46 107.956 378.706L106.961 377.59C106.509 377.047 105.362 374.784 106.237 376.745C107.112 378.706 105.785 375.991 105.393 375.418C105 374.845 104.156 373.427 103.613 372.401C103.07 371.376 102.708 370.622 102.225 369.747C101.743 368.872 101.351 369.053 102.225 369.747C102.738 370.954 102.738 370.954 102.225 369.747L101.894 368.842C101.172 366.818 100.567 364.753 100.084 362.659C99.8727 361.694 99.752 360.698 99.5409 359.643C99.1789 358.014 99.8124 361.151 99.7521 361.181C99.6917 361.211 99.5409 359.009 99.5409 358.707C99.3901 356.548 99.3901 354.382 99.5409 352.222C99.5409 351.71 99.5409 351.227 99.5409 350.714C99.5409 349.025 99.5409 352.253 99.3297 352.222C99.1186 352.192 99.9934 348.724 100.114 348.241C100.627 346.069 101.381 343.988 102.105 341.877C102.648 340.308 101.652 343.023 101.592 343.053C101.884 342.617 102.108 342.139 102.256 341.635C102.738 340.67 103.221 339.735 103.764 338.8C104.307 337.865 105.031 336.689 105.694 335.784C105.996 335.361 106.328 334.939 106.599 334.487C107.474 333.129 105.905 335.422 105.815 335.482C107.594 334.366 109.103 331.712 110.671 330.234L112.963 328.213C114.924 326.554 110.611 329.751 113.537 327.881C115.497 326.614 117.488 325.468 119.569 324.382C122.585 322.753 117.639 324.955 120.082 324.111C121.017 323.779 121.922 323.417 122.887 323.115C125.093 322.434 127.34 321.89 129.613 321.486C132.268 320.943 126.205 321.667 130.036 321.486L133.052 321.336C134.228 321.336 135.375 321.336 136.551 321.336C137.214 321.336 140.924 321.758 138.542 321.336C136.159 320.913 139.808 321.577 140.532 321.728L143.549 322.482C144.725 322.814 145.841 323.175 146.987 323.598C147.441 323.849 147.928 324.032 148.435 324.141C147.621 324.141 145.901 322.934 147.711 323.899C160.078 330.324 172.143 337.352 184.329 344.109L252.769 382.144L300.486 408.657C311.869 415.091 324.42 419.193 337.406 420.722C357.317 422.839 377.358 418.151 394.263 407.421C429.554 384.798 445.811 338.528 429.855 299.226C422.222 279.907 408.231 263.767 390.191 253.469C388.478 252.303 386.542 251.503 384.506 251.118C382.469 250.733 380.376 250.773 378.355 251.233C376.334 251.694 374.43 252.566 372.762 253.795C371.093 255.024 369.696 256.584 368.657 258.377C367.618 260.17 366.96 262.158 366.723 264.217C366.487 266.276 366.678 268.362 367.283 270.344C367.888 272.326 368.896 274.162 370.242 275.737C371.589 277.312 373.246 278.593 375.11 279.5C377.07 280.616 379.031 281.822 380.931 283.089C381.876 283.876 382.885 284.582 383.947 285.2C383.947 285.2 381.685 283.36 382.922 284.446L384.49 285.774C386.178 287.195 387.789 288.705 389.316 290.298C390.161 291.143 394.022 294.34 393.991 295.576C393.991 295.576 391.82 292.56 393.479 294.883C393.75 295.305 394.052 295.697 394.354 296.119C394.655 296.542 395.5 297.748 396.043 298.593C397.279 300.523 398.456 302.514 399.542 304.625C400.084 305.651 400.597 306.707 401.08 307.642L401.683 308.999C402.437 310.507 401.05 307.672 401.14 307.672C402.124 309.76 402.892 311.943 403.432 314.187C404.036 316.238 404.549 318.319 405.001 320.401C405.242 321.547 405.423 322.663 405.634 323.809C406.087 326.343 405.363 320.793 405.634 324.201C406.031 328.655 406.082 333.132 405.785 337.593C405.785 338.106 405.272 342.118 405.604 339.584C405.936 337.05 405.333 341.062 405.242 341.545C404.79 343.867 404.247 346.19 403.583 348.452C402.92 350.714 402.136 352.675 401.412 354.786C400.839 356.355 401.924 353.61 401.924 353.58C401.683 354.038 401.471 354.512 401.291 354.997C400.718 356.294 400.084 357.561 399.421 358.798C398.516 360.517 397.551 362.176 396.405 363.835L394.655 366.459L393.75 367.726C392.393 369.596 392.785 368.299 393.931 367.545C392.317 369.071 390.853 370.748 389.558 372.552C387.927 374.273 386.206 375.904 384.4 377.439C383.947 377.831 381.715 380.063 383.223 378.464C384.732 376.866 382.198 379.218 381.534 379.671C379.624 380.998 377.613 382.235 375.502 383.381C373.632 384.436 371.701 385.371 369.771 386.397C369.771 386.397 368.504 387.091 368.413 387C368.323 386.91 371.43 385.914 369.741 386.427L366.03 387.784C364.051 388.479 362.037 389.073 359.998 389.564L356.982 390.228C355.66 390.269 354.351 390.492 353.091 390.891C353.091 390.891 356.288 390.59 354.659 390.68L353.181 390.831C352.035 390.831 350.858 391.012 349.712 391.072C347.391 391.193 345.066 391.193 342.745 391.072C341.598 391.072 340.422 391.072 339.276 390.831L337.768 390.68C336.079 390.68 339.306 390.891 339.306 390.891C337.074 390.228 334.631 390.077 332.369 389.534C330.106 388.991 328.086 388.358 326.004 387.634C324.912 387.102 323.771 386.677 322.596 386.367C322.596 386.367 325.341 387.604 323.802 386.88L321.902 386.005C309.173 379.972 297.048 372.371 284.741 365.524L216.694 327.881L168.433 301.006C157.544 294.544 145.079 291.224 132.418 291.414C121.369 291.73 110.585 294.87 101.092 300.533C91.5998 306.197 83.7148 314.196 78.1882 323.769C72.6616 333.342 69.6773 344.17 69.5195 355.223C69.3616 366.275 72.0356 377.184 77.2866 386.911C82.5377 396.638 90.1911 404.859 99.5182 410.791C108.845 416.723 119.536 420.169 130.571 420.801C141.607 421.433 152.621 419.23 162.564 414.401C172.507 409.572 181.049 402.278 187.375 393.214C189.592 389.963 191.607 386.578 193.408 383.079L215.578 343.174L251.321 278.534L290.171 208.647L321.751 151.76C326.276 143.616 330.8 135.411 335.355 127.297C335.717 126.664 336.049 126.031 336.441 125.397C336.833 124.764 337.828 123.376 338.492 122.381C339.155 121.385 337.768 123.316 337.677 123.346C338.183 122.88 338.629 122.353 339.004 121.778C340.456 120.115 342.018 118.553 343.68 117.102L344.826 116.107C347.028 114.237 344.162 116.59 344.162 116.62C344.162 116.65 346.666 114.9 347.179 114.659C348.955 113.453 350.856 112.442 352.849 111.643C352.849 111.643 349.26 112.97 352.005 112.005L353.392 111.492C354.478 111.1 355.594 110.768 356.71 110.466C357.826 110.165 358.942 109.893 360.088 109.652C360.661 109.652 363.949 108.989 361.506 109.381C359.063 109.773 362.833 109.381 363.467 109.381C364.794 109.381 366.121 109.381 367.448 109.381L370.464 109.562C373.33 109.562 367.599 108.988 370.464 109.562C372.974 110.042 375.452 110.677 377.884 111.462C378.427 111.643 381.444 112.94 379.483 112.005C377.523 111.07 381.082 112.849 381.474 113.061C383.339 114.073 385.151 115.18 386.903 116.378C389.256 117.887 385.033 114.719 387.145 116.529C388.049 117.313 388.954 118.098 389.799 118.942C390.643 119.787 391.247 120.36 391.94 121.114L392.936 122.26C393.388 122.773 394.534 125.035 393.66 123.105C392.785 121.174 394.112 123.859 394.504 124.432C394.896 125.005 395.741 126.393 396.314 127.448C396.887 128.504 397.219 129.228 397.671 130.103C398.124 130.977 398.546 130.766 397.671 130.103C397.189 128.896 397.189 128.926 397.671 130.103L398.003 131.038C398.743 133.056 399.348 135.122 399.813 137.221C400.024 138.186 400.145 139.182 400.356 140.237C400.748 141.836 400.084 138.729 400.175 138.669C400.196 139.507 400.266 140.343 400.386 141.172C400.522 143.332 400.522 145.498 400.386 147.657C400.386 148.14 400.386 148.653 400.386 149.135C400.386 150.855 400.386 147.627 400.597 147.627C400.808 147.627 399.934 151.156 399.813 151.609C399.259 153.773 398.594 155.907 397.822 158.003C397.309 159.572 398.275 156.857 398.335 156.797C398.048 157.246 397.824 157.734 397.671 158.245C397.189 159.18 396.706 160.115 396.163 161.05C395.62 161.985 394.927 163.191 394.233 164.217C393.931 164.639 393.599 165.061 393.328 165.484C392.453 166.871 394.052 164.549 394.112 164.518C392.333 165.604 390.855 168.289 389.256 169.767C388.502 170.461 387.748 171.094 386.964 171.758C385.003 173.447 389.316 170.249 386.421 172.12C384.43 173.386 382.469 174.533 380.388 175.618C377.372 177.247 382.318 175.015 379.905 175.89C378.97 176.222 378.035 176.584 377.1 176.885C374.879 177.549 372.623 178.092 370.344 178.514C367.689 179.057 373.752 178.333 369.922 178.514C368.926 178.514 367.931 178.665 366.905 178.665C365.88 178.665 364.583 178.665 363.406 178.665C362.743 178.665 359.033 178.212 361.416 178.665C363.798 179.117 360.149 178.393 359.455 178.243C358.761 178.092 357.464 177.79 356.439 177.489C355.413 177.187 354.146 176.795 353 176.403C352.542 176.155 352.056 175.963 351.552 175.83C352.367 175.83 354.086 177.036 352.276 176.101C339.909 169.646 327.844 162.648 315.658 155.862L247.219 117.856L199.501 91.3432C188.116 84.9142 175.566 80.8129 162.581 79.278C142.676 77.1579 122.64 81.8584 105.754 92.61C70.4337 115.202 54.1759 161.472 70.1622 200.804C77.7753 220.127 91.7581 236.27 109.796 246.562C113.245 248.514 117.322 249.03 121.148 247.999C124.974 246.969 128.241 244.474 130.242 241.054C132.244 237.634 132.818 233.564 131.843 229.724C130.867 225.883 128.419 222.581 125.029 220.531L124.938 220.048Z" fill="#7D30FA"/>
</svg>
